<?xml version="1.0" encoding="UTF-8" standalone="no"?>
<!-- Created with Inkscape (http://www.inkscape.org/) -->

<svg
   xmlns:dc="http://purl.org/dc/elements/1.1/"
   xmlns:cc="http://creativecommons.org/ns#"
   xmlns:rdf="http://www.w3.org/1999/02/22-rdf-syntax-ns#"
   xmlns:svg="http://www.w3.org/2000/svg"
   xmlns="http://www.w3.org/2000/svg"
   xmlns:sodipodi="http://sodipodi.sourceforge.net/DTD/sodipodi-0.dtd"
   xmlns:inkscape="http://www.inkscape.org/namespaces/inkscape"
   width="744.09448"
   height="524.40942"
   id="svg2"
   version="1.1"
   inkscape:version="0.48.5 r10040"
   sodipodi:docname="Wound-iron-core-large.svg">
  <defs
     id="defs4">
    <inkscape:perspective
       sodipodi:type="inkscape:persp3d"
       inkscape:vp_x="0 : 0.5 : 1"
       inkscape:vp_y="0 : 1000 : 0"
       inkscape:vp_z="1 : 0.5 : 1"
       inkscape:persp3d-origin="0.5 : 0.33333333 : 1"
       id="perspective5097" />
    <inkscape:perspective
       id="perspective5085"
       inkscape:persp3d-origin="372.04724 : 350.78739 : 1"
       inkscape:vp_z="744.09448 : 526.18109 : 1"
       inkscape:vp_y="0 : 1000 : 0"
       inkscape:vp_x="0 : 526.18109 : 1"
       sodipodi:type="inkscape:persp3d" />
  </defs>
  <sodipodi:namedview
     id="base"
     pagecolor="#ffffff"
     bordercolor="#666666"
     borderopacity="1.0"
     inkscape:pageopacity="0.0"
     inkscape:pageshadow="2"
     inkscape:zoom="1.1487277"
     inkscape:cx="335.50881"
     inkscape:cy="276.33825"
     inkscape:document-units="mm"
     inkscape:current-layer="layer1"
     showgrid="true"
     units="mm"
     inkscape:window-width="1280"
     inkscape:window-height="958"
     inkscape:window-x="0"
     inkscape:window-y="27"
     inkscape:window-maximized="1">
    <inkscape:grid
       type="xygrid"
       id="grid2985"
       units="mm"
       empspacing="4"
       visible="true"
       enabled="true"
       snapvisiblegridlinesonly="true" />
  </sodipodi:namedview>
  <metadata
     id="metadata7">
    <rdf:RDF>
      <cc:Work
         rdf:about="">
        <dc:format>image/svg+xml</dc:format>
        <dc:type
           rdf:resource="http://purl.org/dc/dcmitype/StillImage" />
        <dc:title></dc:title>
      </cc:Work>
    </rdf:RDF>
  </metadata>
  <g
     inkscape:label="Ebene 1"
     inkscape:groupmode="layer"
     id="layer1"
     transform="translate(0,-527.9527)">
    <g
       transform="matrix(3.0096,0,0,3.0096,-534.82201,-1905.6264)"
       id="layer1-9"
       inkscape:label="Ebene 1">
      <g
         id="g5046"
         transform="translate(-128.13117,19.27583)">
        <path
           id="path2838-07"
           style="fill:#dcdcdc;fill-opacity:1;fill-rule:evenodd;stroke:#000000;stroke-width:0.58866745;stroke-linecap:butt;stroke-linejoin:miter;stroke-miterlimit:4;stroke-opacity:1;stroke-dasharray:none"
           d="m 346.30048,818.50323 c 0,-4.42914 2.59726,-7.40552 6.92601,-7.93703 l 69.2601,-8.50407 c 4.32876,-0.5315 6.92601,1.80708 6.92601,6.23621 l 0,99.2126 c 0,4.42913 -2.59725,7.40552 -6.92601,7.93702 l -69.2601,8.50407 c -4.32875,0.53151 -6.92601,-1.80707 -6.92601,-6.23621 l 0,-99.21259 z m -27.70404,102.61422 0,-99.2126 c 0,-21.25984 13.85202,-37.13388 34.63005,-39.6851 l 69.25794,-8.50381 c 20.78019,-2.55149 34.63221,9.92093 34.63221,31.18077 l 0,99.2126 c 0,21.25984 -13.85202,37.13389 -34.63005,39.68511 l -69.2601,8.50407 c -20.77802,2.55122 -34.63004,-9.9212 -34.63005,-31.18104 z"
           sodipodi:nodetypes="csssssssscssssssss"
           inkscape:connector-curvature="0" />
        <g
           id="g4215">
          <path
             sodipodi:nodetypes="ccccc"
             d="m 372.27301,799.36932 69.2601,-8.50407 -19.04652,-17.14957 -69.2601,8.50407 19.04652,17.14957 z"
             style="fill:#e6e6e6;fill-opacity:1;stroke:none"
             id="path3850-1-5"
             inkscape:connector-curvature="0" />
          <path
             sodipodi:nodetypes="ccccc"
             d="m 318.59644,821.90485 0,99.21261 19.04652,17.14957 0,-99.21261 -19.04652,-17.14957 z"
             style="fill:#e6e6e6;fill-opacity:1;stroke:none"
             id="path3850-1"
             inkscape:connector-curvature="0" />
          <path
             sodipodi:nodetypes="ccccc"
             d="m 337.64297,839.05442 c 0,-21.25984 13.85202,-37.13388 34.63005,-39.6851 l -19.04653,-17.14957 c -20.77803,2.55122 -34.63005,18.42526 -34.63005,39.6851 l 19.04653,17.14957 z"
             style="fill:#e6e6e6;fill-opacity:1;stroke:none"
             id="path3907-6"
             inkscape:connector-curvature="0" />
          <path
             sodipodi:nodetypes="ccscc"
             d="m 337.64297,938.26702 c 0,10.62992 3.46301,19.06299 9.57708,24.56811 0,0 -12.69769,-11.43304 -19.04653,-17.14956 -5.24832,-4.72561 -9.57708,-13.05237 -9.57708,-24.56811 l 19.04653,17.14956 z"
             style="fill:#e6e6e6;fill-opacity:1;stroke:none"
             id="path4031-8"
             inkscape:connector-curvature="0" />
          <path
             sodipodi:nodetypes="ccscc"
             d="m 441.53312,790.86525 c 8.65751,-1.06301 18.18077,0.42516 25.10678,6.55102 L 447.59337,780.2667 c -6.81816,-6.1391 -16.44927,-7.61403 -25.10678,-6.55102 l 19.04653,17.14957 z"
             style="fill:#e6e6e6;fill-opacity:1;stroke:none"
             id="path4058-8"
             inkscape:connector-curvature="0" />
        </g>
        <path
           id="path3954-2"
           style="fill:#a0a0a0;fill-opacity:1;stroke:none"
           d="m 448.45913,825.44791 0,99.2126 -19.04653,-17.14957 0,-99.2126 19.04653,17.14957 z"
           sodipodi:nodetypes="ccccc"
           inkscape:connector-curvature="0" />
        <path
           id="path3979-5"
           style="fill:#a0a0a0;fill-opacity:1;stroke:none"
           d="m 372.27302,941.1016 69.2601,-8.50407 -19.04653,-17.14957 -69.2601,8.50407 19.04653,17.14957 z"
           sodipodi:nodetypes="ccccc"
           inkscape:connector-curvature="0" />
        <path
           id="path4004-3"
           style="fill:#a0a0a0;fill-opacity:1;stroke:none"
           d="m 441.53312,932.59753 c 4.32875,-0.5315 6.92601,-3.50789 6.92601,-7.93702 L 429.4126,907.51094 c 0,5.31496 -2.59725,7.40552 -6.92601,7.93702 l 19.04653,17.14957 z"
           sodipodi:nodetypes="ccccc"
           inkscape:connector-curvature="0" />
        <path
           id="path4004-3-1"
           style="fill:#a0a0a0;fill-opacity:1;stroke:none"
           d="m 365.34701,934.86539 c 0,4.42914 2.59725,6.76772 6.92601,6.23621 l -6.92601,-6.23621 z"
           sodipodi:nodetypes="ccc"
           inkscape:connector-curvature="0" />
        <path
           id="path4004-3-1-7"
           style="fill:#a0a0a0;fill-opacity:1;stroke:none"
           d="m 441.53312,819.2117 c 4.32875,-0.5315 6.92601,1.80708 6.92601,6.23621 l -6.92601,-6.23621 z"
           sodipodi:nodetypes="ccc"
           inkscape:connector-curvature="0" />
        <path
           id="path2838-07-0"
           style="fill:#c8c8c8;fill-opacity:1;fill-rule:evenodd;stroke:#000000;stroke-width:0.4120672;stroke-linecap:butt;stroke-linejoin:miter;stroke-miterlimit:4;stroke-opacity:1;stroke-dasharray:none"
           d="m 365.34701,835.6528 c 0,-4.42914 2.59726,-7.40552 6.92601,-7.93703 l 69.2601,-8.50407 c 4.32876,-0.5315 6.92601,1.80708 6.92601,6.23621 l 0,99.2126 c 0,4.42913 -2.59725,7.40552 -6.92601,7.93702 l -69.2601,8.50407 c -4.32875,0.53151 -6.92601,-1.80707 -6.92601,-6.23621 l 0,-99.21259 z m -27.70404,102.61422 0,-99.2126 c 0,-21.25984 13.85202,-37.13388 34.63005,-39.6851 l 69.25794,-8.50381 c 20.78019,-2.55149 34.63221,9.92093 34.63221,31.18077 l 0,99.2126 c 0,21.25984 -13.85202,37.13389 -34.63005,39.68511 l -69.2601,8.50407 c -20.77802,2.55122 -34.63004,-9.9212 -34.63005,-31.18104 z"
           sodipodi:nodetypes="csssssssscssssssss"
           inkscape:connector-curvature="0" />
        <g
           id="g5029">
          <path
             sodipodi:nodetypes="cssssssss"
             d="m 372.27302,942.87325 c -5.19451,0.63781 -8.65751,-2.48029 -8.65751,-7.79525 l 0,-99.2126 c 0,-5.31496 3.463,-9.28347 8.65751,-9.92128 l 69.2601,-8.50407 c 5.1945,-0.6378 8.65751,2.4803 8.65751,7.79526 l 0,99.2126 c 0,5.31496 -3.46301,9.28347 -8.65751,9.92127 l -69.2601,8.50407 z"
             style="fill:none;stroke:#000000;stroke-width:0.21192028;stroke-linecap:butt;stroke-linejoin:miter;stroke-miterlimit:4;stroke-opacity:1;stroke-dasharray:none"
             id="path4222-5-7-7-4-2"
             inkscape:connector-curvature="0" />
          <path
             sodipodi:nodetypes="cssssssss"
             d="m 372.27302,944.64491 c -6.06026,0.74411 -10.38901,-3.15353 -10.38901,-9.35431 l 0,-99.2126 c -10e-6,-6.20079 4.32875,-11.16143 10.38901,-11.90553 l 69.2601,-8.50407 c 6.06025,-0.74411 10.38901,3.15352 10.38901,9.35431 l 0,99.2126 c 0,6.20078 -4.32876,11.16142 -10.38901,11.90553 l -69.2601,8.50407 z"
             style="fill:none;stroke:#000000;stroke-width:0.21192028;stroke-linecap:butt;stroke-linejoin:miter;stroke-miterlimit:4;stroke-opacity:1;stroke-dasharray:none"
             id="path4222-5-7-7-4-2-6"
             inkscape:connector-curvature="0" />
          <path
             sodipodi:nodetypes="cssssssss"
             d="m 372.27302,946.41656 c -6.92601,0.85041 -12.12052,-3.82675 -12.12052,-10.91336 l 0,-99.2126 c 0,-7.08661 5.19451,-13.03938 12.12052,-13.88979 l 69.2601,-8.50406 c 6.92601,-0.85041 12.12051,3.82674 12.12051,10.91335 l 0,99.2126 c 0,7.08662 -5.1945,13.03938 -12.12051,13.88979 l -69.2601,8.50407 z"
             style="fill:none;stroke:#000000;stroke-width:0.21192028;stroke-linecap:butt;stroke-linejoin:miter;stroke-miterlimit:4;stroke-opacity:1;stroke-dasharray:none"
             id="path4222-5-7-7-4-2-6-3"
             inkscape:connector-curvature="0" />
          <path
             sodipodi:nodetypes="cssssssss"
             d="m 372.27302,948.18822 c -7.79176,0.9567 -13.85202,-4.49998 -13.85202,-12.47242 l 0,-99.2126 c 0,-7.97244 6.06026,-14.91733 13.85202,-15.87404 l 69.2601,-8.50407 c 7.79176,-0.95671 13.85202,4.49997 13.85202,12.47241 l 0,99.2126 c 0,7.97245 -6.06026,14.91734 -13.85202,15.87405 l -69.2601,8.50407 z"
             style="fill:none;stroke:#000000;stroke-width:0.21192028;stroke-linecap:butt;stroke-linejoin:miter;stroke-miterlimit:4;stroke-opacity:1;stroke-dasharray:none"
             id="path4222-5-7-7-4-2-6-3-3"
             inkscape:connector-curvature="0" />
          <path
             sodipodi:nodetypes="cssssssss"
             d="m 372.27302,949.95987 c -8.65751,1.06301 -15.58352,-5.1732 -15.58352,-14.03147 l 0,-99.2126 c 0,-8.85826 6.92601,-16.79528 15.58352,-17.85829 l 69.2601,-8.50407 c 8.65751,-1.06301 15.58352,5.17319 15.58352,14.03146 l 0,99.2126 c 0,8.85827 -6.92601,16.79529 -15.58352,17.8583 l -69.2601,8.50407 z"
             style="fill:none;stroke:#000000;stroke-width:0.21192028;stroke-linecap:butt;stroke-linejoin:miter;stroke-miterlimit:4;stroke-opacity:1;stroke-dasharray:none"
             id="path4222-5-7-7-4-2-6-3-3-2"
             inkscape:connector-curvature="0" />
          <path
             sodipodi:nodetypes="cssssssss"
             d="M 372.27302,951.73152 C 362.74976,952.90083 354.958,945.8851 354.958,936.141 l 0,-99.2126 c 0,-9.74408 7.79176,-18.67324 17.31502,-19.84255 l 69.2601,-8.50407 c 9.52326,-1.16931 17.31502,5.84643 17.31502,15.59052 l 0,99.2126 c 0,9.74409 -7.79176,18.67324 -17.31502,19.84255 l -69.2601,8.50407 z"
             style="fill:none;stroke:#000000;stroke-width:0.21192028;stroke-linecap:butt;stroke-linejoin:miter;stroke-miterlimit:4;stroke-opacity:1;stroke-dasharray:none"
             id="path4222-5-7-7-4-2-6-3-3-2-1"
             inkscape:connector-curvature="0" />
          <path
             sodipodi:nodetypes="cssssssss"
             d="m 372.27302,953.50318 c -10.38901,1.27561 -19.04653,-6.51965 -19.04653,-17.14957 l 0,-99.2126 c 0,-10.62992 8.65752,-20.5512 19.04653,-21.82681 l 69.2601,-8.50407 c 10.38901,-1.27561 19.04652,6.51965 19.04652,17.14957 l 1e-5,99.2126 c 0,10.62992 -8.65752,20.55119 -19.04653,21.82681 l -69.2601,8.50407 z"
             style="fill:none;stroke:#000000;stroke-width:0.21192028;stroke-linecap:butt;stroke-linejoin:miter;stroke-miterlimit:4;stroke-opacity:1;stroke-dasharray:none"
             id="path4222-5-7-7-4-2-6-3-3-2-1-9"
             inkscape:connector-curvature="0" />
          <path
             sodipodi:nodetypes="cssssssss"
             d="m 372.27302,955.27483 c -11.25477,1.38191 -20.77803,-7.19287 -20.77803,-18.70862 l 0,-99.2126 c 0,-11.51575 9.52326,-22.42915 20.77803,-23.81106 l 69.2601,-8.50408 c 11.25476,-1.38191 20.77803,7.19288 20.77803,18.70862 l 0,99.2126 c 0,11.51575 -9.52327,22.42916 -20.77803,23.81107 l -69.2601,8.50407 z"
             style="fill:none;stroke:#000000;stroke-width:0.21192028;stroke-linecap:butt;stroke-linejoin:miter;stroke-miterlimit:4;stroke-opacity:1;stroke-dasharray:none"
             id="path4222-5-7-7-4-2-6-3-3-2-1-9-8"
             inkscape:connector-curvature="0" />
          <path
             sodipodi:nodetypes="cssssssss"
             d="m 372.27302,957.04648 c -12.12052,1.48821 -22.50953,-7.8661 -22.50953,-20.26767 l 0,-99.2126 c 0,-12.40157 10.38901,-24.30711 22.50953,-25.79532 l 69.2601,-8.50407 c 12.12051,-1.48821 22.50953,7.8661 22.50953,20.26767 l 0,99.21261 c 0,12.40157 -10.38902,24.3071 -22.50953,25.79531 l -69.2601,8.50407 z"
             style="fill:none;stroke:#000000;stroke-width:0.21192028;stroke-linecap:butt;stroke-linejoin:miter;stroke-miterlimit:4;stroke-opacity:1;stroke-dasharray:none"
             id="path4222-5-7-7-4-2-6-3-3-2-1-9-8-8"
             inkscape:connector-curvature="0" />
          <path
             sodipodi:nodetypes="cssssssss"
             d="m 372.27302,958.81814 c -12.98627,1.59451 -24.24103,-8.53933 -24.24103,-21.82673 l 0,-99.2126 c 0,-13.2874 11.25476,-26.18506 24.24103,-27.77957 l 69.2601,-8.50407 c 12.98626,-1.59452 24.24103,8.53932 24.24103,21.82672 l 0,99.2126 c 0,13.2874 -11.25476,26.18507 -24.24103,27.77958 l -69.2601,8.50407 z"
             style="fill:none;stroke:#000000;stroke-width:0.21192028;stroke-linecap:butt;stroke-linejoin:miter;stroke-miterlimit:4;stroke-opacity:1;stroke-dasharray:none"
             id="path4222-5-7-7-4-2-6-3-3-2-1-9-8-8-6"
             inkscape:connector-curvature="0" />
          <path
             sodipodi:nodetypes="cssssssss"
             d="m 372.27302,960.58979 c -13.85202,1.70081 -25.97254,-9.21255 -25.97254,-23.38578 l 0,-99.2126 c 0,-14.17322 12.12052,-28.06301 25.97254,-29.76382 l 69.2601,-8.50408 c 13.85202,-1.70081 25.97253,9.21255 25.97253,23.38578 l 10e-6,99.2126 c 0,14.17323 -12.12052,28.06302 -25.97254,29.76383 l -69.2601,8.50407 z"
             style="fill:none;stroke:#000000;stroke-width:0.21192028;stroke-linecap:butt;stroke-linejoin:miter;stroke-miterlimit:4;stroke-opacity:1;stroke-dasharray:none"
             id="path4222-5-7-7-4-2-6-3-3-2-1-9-8-8-6-3"
             inkscape:connector-curvature="0" />
          <path
             sodipodi:nodetypes="cssssssss"
             d="m 372.27302,962.36144 c -14.71777,1.80712 -27.70404,-9.88577 -27.70404,-24.94483 l 0,-99.2126 c 0,-15.05905 12.98627,-29.94096 27.70404,-31.74808 l 69.2601,-8.50407 c 14.71777,-1.80711 27.70404,9.88577 27.70404,24.94483 l 0,99.2126 c 0,15.05905 -12.98628,29.94097 -27.70404,31.74808 l -69.2601,8.50407 z"
             style="fill:none;stroke:#000000;stroke-width:0.21192028;stroke-linecap:butt;stroke-linejoin:miter;stroke-miterlimit:4;stroke-opacity:1;stroke-dasharray:none"
             id="path4222-5-7-7-4-2-6-3-3-2-1-9-8-8-6-3-0"
             inkscape:connector-curvature="0" />
          <path
             sodipodi:nodetypes="cssssssss"
             d="m 372.27302,964.1331 c -15.58352,1.91342 -29.43554,-10.559 -29.43554,-26.50388 l 0,-99.2126 c 0,-15.94488 13.85202,-31.81893 29.43554,-33.73234 l 69.2601,-8.50407 c 15.58352,-1.91342 29.43554,10.559 29.43554,26.50388 l 0,99.2126 c 0,15.94488 -13.85202,31.81892 -29.43554,33.73234 l -69.2601,8.50407 z"
             style="fill:none;stroke:#000000;stroke-width:0.21192028;stroke-linecap:butt;stroke-linejoin:miter;stroke-miterlimit:4;stroke-opacity:1;stroke-dasharray:none"
             id="path4222-5-7-7-4-2-6-3-3-2-1-9-8-8-6-3-0-6"
             inkscape:connector-curvature="0" />
          <path
             sodipodi:nodetypes="cssssssss"
             d="m 372.27302,965.90475 c -16.44927,2.01972 -31.16704,-11.23222 -31.16704,-28.06293 l -10e-6,-99.2126 c 0,-16.83071 14.71778,-33.69688 31.16705,-35.7166 l 69.2601,-8.50407 c 16.44927,-2.01971 31.16704,11.23223 31.16704,28.06294 l 0,99.2126 c 0,16.8307 -14.71777,33.69687 -31.16704,35.71659 l -69.2601,8.50407 z"
             style="fill:none;stroke:#000000;stroke-width:0.21192028;stroke-linecap:butt;stroke-linejoin:miter;stroke-miterlimit:4;stroke-opacity:1;stroke-dasharray:none"
             id="path4222-5-7-7-4-2-6-3-3-2-1-9-8-8-6-3-0-6-0"
             inkscape:connector-curvature="0" />
          <path
             sodipodi:nodetypes="cssssssss"
             d="m 372.27302,967.6764 c -18.18078,2.23232 -32.89854,-11.01962 -32.89854,-29.62198 l -1e-5,-99.2126 c 0,-18.60236 14.71777,-35.46853 32.89855,-37.70085 l 69.2601,-8.50407 c 18.18077,-2.23232 32.89854,11.01962 32.89854,29.62198 l 0,99.2126 c 0,18.60236 -14.71777,35.46853 -32.89854,37.70085 l -69.2601,8.50407 z"
             style="fill:none;stroke:#000000;stroke-width:0.21192028;stroke-linecap:butt;stroke-linejoin:miter;stroke-miterlimit:4;stroke-opacity:1;stroke-dasharray:none"
             id="path4222-5-7-7-4-2-6-3-3-2-1-9-8-8-6-3-0-6-0-4"
             inkscape:connector-curvature="0" />
        </g>
      </g>
      <g
         transform="translate(-27.704038,-39.118061)"
         id="g3352">
        <g
           transform="translate(110.81615,43.0864)"
           id="g3122">
          <g
             id="g5228-6-7"
             transform="matrix(-0.99254615,0.12186934,-0.12186934,-0.99254615,604.48005,1724.5731)">
            <path
               style="fill:#000000;fill-opacity:1;stroke:none"
               d="m 256.40111,780.41327 7.08661,2.65748 -7.08661,2.65748 1.77165,-2.65748 -1.77165,-2.65748 z"
               id="path4380-4-3-4-0-5"
               sodipodi:nodetypes="ccccc"
               inkscape:connector-curvature="0" />
          </g>
          <path
             id="path4378-0-7-3-4-1-0"
             style="fill:none;stroke:#000000;stroke-width:0.4120672;stroke-linecap:butt;stroke-linejoin:miter;stroke-miterlimit:4;stroke-opacity:1;stroke-dasharray:none"
             d="m 249.33635,979.22783 34.63005,-4.25204 0,-35.43308"
             inkscape:connector-curvature="0"
             sodipodi:nodetypes="ccc" />
          <path
             inkscape:connector-curvature="0"
             sodipodi:nodetypes="ccccc"
             id="path4380-4-3-4-0-5-5"
             d="m 286.62388,943.08602 -2.65748,-7.08661 -2.65748,7.08661 2.65748,-1.77165 2.65748,1.77165 z"
             style="fill:#000000;fill-opacity:1;stroke:none" />
          <path
             style="fill:#000000;fill-opacity:1;stroke:none"
             d="m 274.95398,963.32713 -6.99522,-2.8895 3.37042,6.77661 0.5167,-3.15182 3.1081,-0.73529 z"
             id="path4380-4-3-4-0-5-5-4"
             sodipodi:nodetypes="ccccc"
             inkscape:connector-curvature="0" />
          <path
             sodipodi:nodetypes="cc"
             inkscape:connector-curvature="0"
             id="path3116"
             d="M 283.9664,974.97579 270.11438,962.50337"
             style="color:#000000;fill:none;stroke:#000000;stroke-width:0.4120672;stroke-linecap:butt;stroke-linejoin:round;stroke-miterlimit:4;stroke-opacity:1;stroke-dasharray:none;stroke-dashoffset:0;marker:none;visibility:visible;display:inline;overflow:visible;enable-background:accumulate" />
        </g>
        <text
           xml:space="preserve"
           style="font-size:12px;font-style:normal;font-variant:normal;font-weight:normal;font-stretch:normal;text-align:start;line-height:125%;letter-spacing:0px;word-spacing:0px;writing-mode:lr-tb;text-anchor:start;fill:#000000;fill-opacity:1;stroke:none;font-family:cmr10;-inkscape-font-specification:cmr10"
           x="370.54153"
           y="1028.1252"
           id="text3135"
           sodipodi:linespacing="125%"><tspan
             sodipodi:role="line"
             id="tspan3137"
             x="370.54153"
             y="1028.1252">$x$</tspan></text>
        <text
           xml:space="preserve"
           style="font-size:12px;font-style:normal;font-variant:normal;font-weight:normal;font-stretch:normal;text-align:start;line-height:125%;letter-spacing:0px;word-spacing:0px;writing-mode:lr-tb;text-anchor:start;fill:#000000;fill-opacity:1;stroke:none;font-family:cmr10;-inkscape-font-specification:cmr10"
           x="398.24557"
           y="994.60553"
           id="text3139"
           sodipodi:linespacing="125%"><tspan
             sodipodi:role="line"
             id="tspan3141"
             x="398.24557"
             y="994.60553">$y$</tspan></text>
        <text
           xml:space="preserve"
           style="font-size:12px;font-style:normal;font-variant:normal;font-weight:normal;font-stretch:normal;text-align:start;line-height:125%;letter-spacing:0px;word-spacing:0px;writing-mode:lr-tb;text-anchor:start;fill:#000000;fill-opacity:1;stroke:none;font-family:cmr10;-inkscape-font-specification:cmr10"
           x="378.33328"
           y="1001.4795"
           id="text3143"
           sodipodi:linespacing="125%"><tspan
             sodipodi:role="line"
             id="tspan3145"
             x="378.33328"
             y="1001.4795">$z$</tspan></text>
      </g>
    </g>
  </g>
</svg>
